# xmcd CD database file
#
# Track frame offsets:
#	150
#	10955
#	25164
#	39509
#	54202
#	71354
#	86592
#	104005
#	111916
#	143797
#	161884
#	174723
#	193314
#	209664
#	224902
#	239496
#	254659
#	267951
#
# Disc length: 3783 seconds
#
# Revision: 0
# Processed by: cddbd v1.5.2PL0 Copyright (c) Steve Scherf et al.
# Submitted via: CDex 1.70beta2
#
DISCID=1c0ec512
DTITLE=Ella Fitzgerald - 4CD Set - CD 2
DYEAR=2006
DGENRE=Jazz
TTITLE0=You Do Something To Me
TTITLE1=It´s Alright With Me
TTITLE2=People Will Say We´re In Love
TTITLE3=To Young For The Blues
TTITLE4=Can´t We Be Friends?
TTITLE5=Anything Goes
TTITLE6=Do I Love You?
TTITLE7=All Of You
TTITLE8=Bewitched, Bothered And Bewildered
TTITLE9=Stardust
TTITLE10=Manhattan
TTITLE11=It Never Entered My Mind
TTITLE12=To Keep My Love Alive
TTITLE13=Ridin´ High
TTITLE14=I Concentrate On You
TTITLE15=Don´t Fence Me In
TTITLE16=Until The Real Things Come Along
TTITLE17=Just A-Sittinn´ And A-Rockin´
EXTD=YEAR: 2006
EXTT0=
EXTT1=
EXTT2=
EXTT3=
EXTT4=
EXTT5=
EXTT6=
EXTT7=
EXTT8=
EXTT9=
EXTT10=
EXTT11=
EXTT12=
EXTT13=
EXTT14=
EXTT15=
EXTT16=
EXTT17=
PLAYORDER=
